<svg viewBox="0 0 32 32" xmlns="http://www.w3.org/2000/svg"><path d="m30.38 31.91a1 1 0 0 1 -.37-.23l-14-14-14 14a1.17 1.17 0 0 1 -.81.32 1.15 1.15 0 0 1 -.83-.32 1.18 1.18 0 0 1 -.37-.86 1 1 0 0 1 .37-.82l14-14-14-14a1.17 1.17 0 0 1 -.37-.82 1 1 0 0 1 .37-.81 1 1 0 0 1 .83-.37 1.07 1.07 0 0 1 .8.37l14 13.94 14-13.94a1 1 0 0 1 .84-.37 1.07 1.07 0 0 1 .84.37 1.13 1.13 0 0 1 .32.81 1.29 1.29 0 0 1 -.32.86l-14 14 14 14a1.1 1.1 0 0 1 .32.81 1.31 1.31 0 0 1 -.32.86 2.3 2.3 0 0 1 -.4.23 1.08 1.08 0 0 1 -.44.09 1.25 1.25 0 0 1 -.46-.12z"/></svg>